<svg width="253" height="37" viewBox="0 0 253 37" fill="none" xmlns="http://www.w3.org/2000/svg">
<path d="M1.4 1.8V0.999998H11.65C13.0167 0.999998 14.1333 1.23333 15 1.7C15.9 2.13333 16.8333 3.11666 17.8 4.65L30.45 25H30.65V12.7C30.65 7.63333 30.2167 4.56667 29.35 3.5C28.3833 2.36667 26.9333 1.8 25 1.8H23.35V0.999998H37.9V1.8H37.3C35.4 1.86667 34.1 2.36666 33.4 3.3C33 3.8 32.6667 4.31666 32.4 4.85C32.1667 5.35 32 6.08333 31.9 7.05C31.7333 8.65 31.65 10.55 31.65 12.75V35.55H28.7C27.3333 35.55 26.2 35.3333 25.3 34.9C24.4333 34.4333 23.5167 33.4333 22.55 31.9L7.75 8.6V24.85C7.75 29.7167 8.18333 32.5667 9.05 33.4C10.0167 34.3 11.4667 34.75 13.4 34.75H14.35V35.55H0.3V34.75H1.1C3.06667 34.6833 4.51667 34.15 5.45 33.15C6.31667 32.2167 6.75 29.4333 6.75 24.8V7L5.9 5.65C5.86667 5.61666 5.75 5.43333 5.55 5.1C5.35 4.73333 5.2 4.48333 5.1 4.35C5 4.18333 4.83333 3.95 4.6 3.65C4.36667 3.31667 4.15 3.06667 3.95 2.9C3.75 2.73333 3.51667 2.55 3.25 2.35C2.75 1.98333 2.13333 1.8 1.4 1.8ZM68.7727 34.75V35.55H52.6727V34.75H55.9227L52.0727 23.65H43.8227L42.0727 28.8C41.6393 30.1 41.4227 31.0667 41.4227 31.7C41.4227 32.8667 41.806 33.6667 42.5727 34.1C43.3727 34.5333 44.4893 34.75 45.9227 34.75H47.6727V35.55H34.8227V34.75C35.8227 34.75 36.6393 34.65 37.2727 34.45C37.9393 34.2167 38.506 33.7833 38.9727 33.15C39.4393 32.4833 39.7727 31.9 39.9727 31.4C40.206 30.9 40.5393 30.0167 40.9727 28.75L49.6227 4.25C49.8893 3.48333 50.1393 2.88333 50.3727 2.45C50.606 2.01667 51.0893 1.58333 51.8227 1.15C52.5893 0.683332 53.556 0.449999 54.7227 0.449999L66.6727 34.75H68.7727ZM47.9727 11.75L44.1227 22.85H51.8227L47.9727 11.75ZM115.721 10.85C116.355 8.95 116.671 7.65 116.671 6.95C116.671 6.25 116.621 5.68333 116.521 5.25C116.455 4.78333 116.271 4.26667 115.971 3.7C115.371 2.43333 113.971 1.8 111.771 1.8H109.871V0.999998H123.671V1.8C120.938 1.8 118.905 3.91667 117.571 8.15L108.171 36H106.921C104.888 36 103.455 34.7667 102.621 32.3L95.2715 11.25L86.8715 36H85.6215C83.5882 36 82.1548 34.7667 81.3215 32.3L70.6715 1.8H67.7715V0.999998H85.7215V1.8H81.4215L89.4715 24.95H89.6215L94.7715 9.8L91.9715 1.8H89.0715V0.999998H107.021V1.8H102.721L110.771 24.95H110.921L115.721 10.85ZM152.952 34.75V35.55H136.852V34.75H140.102L136.252 23.65H128.002L126.252 28.8C125.819 30.1 125.602 31.0667 125.602 31.7C125.602 32.8667 125.986 33.6667 126.752 34.1C127.552 34.5333 128.669 34.75 130.102 34.75H131.852V35.55H119.002V34.75C120.002 34.75 120.819 34.65 121.452 34.45C122.119 34.2167 122.686 33.7833 123.152 33.15C123.619 32.4833 123.952 31.9 124.152 31.4C124.386 30.9 124.719 30.0167 125.152 28.75L133.802 4.25C134.069 3.48333 134.319 2.88333 134.552 2.45C134.786 2.01667 135.269 1.58333 136.002 1.15C136.769 0.683332 137.736 0.449999 138.902 0.449999L150.852 34.75H152.952ZM132.152 11.75L128.302 22.85H136.002L132.152 11.75ZM184.251 34.75V35.55H168.151V34.75H171.401L167.551 23.65H159.301L157.551 28.8C157.118 30.1 156.901 31.0667 156.901 31.7C156.901 32.8667 157.285 33.6667 158.051 34.1C158.851 34.5333 159.968 34.75 161.401 34.75H163.151V35.55H150.301V34.75C151.301 34.75 152.118 34.65 152.751 34.45C153.418 34.2167 153.985 33.7833 154.451 33.15C154.918 32.4833 155.251 31.9 155.451 31.4C155.685 30.9 156.018 30.0167 156.451 28.75L165.101 4.25C165.368 3.48333 165.618 2.88333 165.851 2.45C166.085 2.01667 166.568 1.58333 167.301 1.15C168.068 0.683332 169.035 0.449999 170.201 0.449999L182.151 34.75H184.251ZM163.451 11.75L159.601 22.85H167.301L163.451 11.75ZM206.6 18.9C209.9 18.9 212.45 19.6667 214.25 21.2C215.117 21.9667 215.7 23.0167 216 24.35C216.3 25.65 216.45 27.7167 216.45 30.55V31.35C216.45 33.15 216.817 34.05 217.55 34.05C217.95 34.05 218.317 33.6 218.65 32.7C218.983 31.7667 219.233 30.6 219.4 29.2L220.3 29.3C220.167 30.5 220 31.4667 219.8 32.2C219.6 32.9333 219.267 33.6667 218.8 34.4C217.9 35.8 216.083 36.5 213.35 36.5C210.617 36.5 208.567 35.5833 207.2 33.75C206.667 33.0167 206.3 32.2 206.1 31.3C205.9 30.3667 205.8 28.7333 205.8 26.4C205.8 24.0667 205.483 22.4 204.85 21.4C204.15 20.2 202.717 19.6 200.55 19.6H198.15V34.75H201.3V35.55H184.75V34.75H187.95V1.8H184.75V0.999998H201.85C206.617 0.999998 210.233 1.66666 212.7 3C215.2 4.33333 216.45 6.71667 216.45 10.15C216.45 15.0167 213.167 17.8667 206.6 18.7V18.9ZM198.15 1.8V18.75H200.45C202.35 18.75 203.767 18.2 204.7 17.1C205.467 16.2 205.85 14.0333 205.85 10.6C205.85 7.16667 205.333 4.85 204.3 3.65C203.267 2.41667 201.767 1.8 199.8 1.8H198.15ZM228.311 35.55V34.75H232.011V1.8C230.511 1.8 229.161 2.25 227.961 3.15C226.761 4.01667 225.827 5.06666 225.161 6.3C224.527 7.5 224.011 8.83333 223.611 10.3C222.911 12.7333 222.561 14.85 222.561 16.65H221.811V0.999998H252.411V16.65H251.661C251.661 14.85 251.377 12.9833 250.811 11.05C250.277 9.08333 249.677 7.5 249.011 6.3C248.377 5.06666 247.461 4.01667 246.261 3.15C245.061 2.25 243.711 1.8 242.211 1.8V34.75H245.911V35.55H228.311Z" fill="black"/>
</svg>
